<svg width="22" height="22" viewBox="0 0 22 22" fill="none" xmlns="http://www.w3.org/2000/svg">
<path d="M19.5312 0.0625H2.34375C1.0498 0.0625 0 1.1123 0 2.40625V19.5938C0 20.8877 1.0498 21.9375 2.34375 21.9375H19.5312C20.8252 21.9375 21.875 20.8877 21.875 19.5938V2.40625C21.875 1.1123 20.8252 0.0625 19.5312 0.0625ZM17.9688 12.3672C17.9688 12.6895 17.7051 12.9531 17.3828 12.9531H12.8906V17.4453C12.8906 17.7676 12.627 18.0312 12.3047 18.0312H9.57031C9.24805 18.0312 8.98438 17.7676 8.98438 17.4453V12.9531H4.49219C4.16992 12.9531 3.90625 12.6895 3.90625 12.3672V9.63281C3.90625 9.31055 4.16992 9.04688 4.49219 9.04688H8.98438V4.55469C8.98438 4.23242 9.24805 3.96875 9.57031 3.96875H12.3047C12.627 3.96875 12.8906 4.23242 12.8906 4.55469V9.04688H17.3828C17.7051 9.04688 17.9688 9.31055 17.9688 9.63281V12.3672Z" fill="#6100FF" fill-opacity="0.6"/>
</svg>
