<svg width="22" height="22" viewBox="0 0 22 22" fill="none" xmlns="http://www.w3.org/2000/svg">
<path d="M19.5938 0.125H2.40625C1.1123 0.125 0.0625 1.1748 0.0625 2.46875V19.6562C0.0625 20.9502 1.1123 22 2.40625 22H19.5938C20.8877 22 21.9375 20.9502 21.9375 19.6562V2.46875C21.9375 1.1748 20.8877 0.125 19.5938 0.125ZM18.0312 12.4297C18.0312 12.752 17.7676 13.0156 17.4453 13.0156H12.9531V17.5078C12.9531 17.8301 12.6895 18.0938 12.3672 18.0938H9.63281C9.31055 18.0938 9.04688 17.8301 9.04688 17.5078V13.0156H4.55469C4.23242 13.0156 3.96875 12.752 3.96875 12.4297V9.69531C3.96875 9.37305 4.23242 9.10938 4.55469 9.10938H9.04688V4.61719C9.04688 4.29492 9.31055 4.03125 9.63281 4.03125H12.3672C12.6895 4.03125 12.9531 4.29492 12.9531 4.61719V9.10938H17.4453C17.7676 9.10938 18.0312 9.37305 18.0312 9.69531V12.4297Z" fill="#6100FF" fill-opacity="0.6"/>
</svg>
