<svg width="25" height="20" viewBox="0 0 25 20" fill="none" xmlns="http://www.w3.org/2000/svg">
<path d="M12.1685 5.60158L4.16634 12.1923V19.3056C4.16634 19.4897 4.2395 19.6664 4.36974 19.7966C4.49997 19.9268 4.67661 20 4.86078 20L9.7245 19.9874C9.90808 19.9865 10.0838 19.9129 10.2133 19.7828C10.3428 19.6527 10.4155 19.4766 10.4155 19.293V15.1389C10.4155 14.9547 10.4886 14.7781 10.6189 14.6479C10.7491 14.5176 10.9257 14.4445 11.1099 14.4445H13.8877C14.0719 14.4445 14.2485 14.5176 14.3787 14.6479C14.509 14.7781 14.5821 14.9547 14.5821 15.1389V19.2899C14.5819 19.3813 14.5996 19.4719 14.6344 19.5564C14.6691 19.6409 14.7203 19.7177 14.7848 19.7824C14.8493 19.8471 14.9259 19.8985 15.0103 19.9335C15.0947 19.9685 15.1852 19.9866 15.2766 19.9866L20.1386 20C20.3227 20 20.4994 19.9268 20.6296 19.7966C20.7598 19.6664 20.833 19.4897 20.833 19.3056V12.1875L12.8326 5.60158C12.7385 5.52576 12.6213 5.48442 12.5005 5.48442C12.3797 5.48442 12.2626 5.52576 12.1685 5.60158V5.60158ZM24.8087 10.0812L21.1802 7.09029V1.07857C21.1802 0.940439 21.1254 0.807963 21.0277 0.710288C20.93 0.612613 20.7975 0.557739 20.6594 0.557739H18.2288C18.0907 0.557739 17.9582 0.612613 17.8606 0.710288C17.7629 0.807963 17.708 0.940439 17.708 1.07857V4.23005L13.8222 1.033C13.4492 0.726133 12.9813 0.558353 12.4984 0.558353C12.0154 0.558353 11.5475 0.726133 11.1746 1.033L0.188042 10.0812C0.135302 10.1248 0.0916684 10.1783 0.0596336 10.2388C0.0275989 10.2992 0.00779113 10.3654 0.00134208 10.4335C-0.00510697 10.5017 0.00192911 10.5704 0.0220483 10.6358C0.0421674 10.7012 0.0749754 10.762 0.118598 10.8147L1.22537 12.1602C1.26887 12.2131 1.32238 12.2569 1.38283 12.2891C1.44328 12.3212 1.50949 12.3412 1.57766 12.3478C1.64584 12.3543 1.71464 12.3474 1.78013 12.3274C1.84561 12.3073 1.9065 12.2745 1.95931 12.2309L12.1685 3.82206C12.2626 3.74625 12.3797 3.70491 12.5005 3.70491C12.6213 3.70491 12.7385 3.74625 12.8326 3.82206L23.0422 12.2309C23.0949 12.2745 23.1557 12.3073 23.2211 12.3275C23.2865 12.3476 23.3552 12.3546 23.4234 12.3482C23.4915 12.3417 23.5576 12.3219 23.6181 12.2899C23.6786 12.2578 23.7321 12.2142 23.7757 12.1615L24.8825 10.816C24.9261 10.763 24.9587 10.7019 24.9786 10.6362C24.9985 10.5705 25.0052 10.5015 24.9983 10.4332C24.9915 10.365 24.9712 10.2987 24.9387 10.2383C24.9061 10.1779 24.8619 10.1245 24.8087 10.0812V10.0812Z" fill="#6100FF" fill-opacity="0.6"/>
</svg>
