<svg width="25" height="20" viewBox="0 0 25 20" fill="none" xmlns="http://www.w3.org/2000/svg">
<path d="M12.1685 5.60145L4.16634 12.1922V19.3054C4.16634 19.4896 4.2395 19.6663 4.36974 19.7965C4.49997 19.9267 4.67661 19.9999 4.86078 19.9999L9.7245 19.9873C9.90808 19.9864 10.0838 19.9128 10.2133 19.7827C10.3428 19.6525 10.4155 19.4764 10.4155 19.2929V15.1388C10.4155 14.9546 10.4886 14.778 10.6189 14.6477C10.7491 14.5175 10.9257 14.4443 11.1099 14.4443H13.8877C14.0719 14.4443 14.2485 14.5175 14.3787 14.6477C14.509 14.778 14.5821 14.9546 14.5821 15.1388V19.2898C14.5819 19.3812 14.5996 19.4717 14.6344 19.5562C14.6691 19.6407 14.7203 19.7176 14.7848 19.7823C14.8493 19.847 14.9259 19.8983 15.0103 19.9334C15.0947 19.9684 15.1852 19.9864 15.2766 19.9864L20.1386 19.9999C20.3227 19.9999 20.4994 19.9267 20.6296 19.7965C20.7598 19.6663 20.833 19.4896 20.833 19.3054V12.1874L12.8326 5.60145C12.7385 5.52564 12.6213 5.4843 12.5005 5.4843C12.3797 5.4843 12.2626 5.52564 12.1685 5.60145V5.60145ZM24.8087 10.0811L21.1802 7.09017V1.07845C21.1802 0.940317 21.1254 0.807841 21.0277 0.710166C20.93 0.612491 20.7975 0.557617 20.6594 0.557617H18.2288C18.0907 0.557617 17.9582 0.612491 17.8606 0.710166C17.7629 0.807841 17.708 0.940317 17.708 1.07845V4.22993L13.8222 1.03288C13.4492 0.726011 12.9813 0.558231 12.4984 0.558231C12.0154 0.558231 11.5475 0.726011 11.1746 1.03288L0.188042 10.0811C0.135302 10.1246 0.0916684 10.1782 0.0596336 10.2387C0.0275989 10.2991 0.00779113 10.3653 0.00134208 10.4334C-0.00510697 10.5015 0.00192911 10.5703 0.0220483 10.6357C0.0421674 10.7011 0.0749754 10.7618 0.118598 10.8146L1.22537 12.16C1.26887 12.2129 1.32238 12.2567 1.38283 12.2889C1.44328 12.3211 1.50949 12.3411 1.57766 12.3477C1.64584 12.3542 1.71464 12.3473 1.78013 12.3272C1.84561 12.3072 1.9065 12.2744 1.95931 12.2308L12.1685 3.82194C12.2626 3.74613 12.3797 3.70478 12.5005 3.70478C12.6213 3.70478 12.7385 3.74613 12.8326 3.82194L23.0422 12.2308C23.0949 12.2744 23.1557 12.3072 23.2211 12.3273C23.2865 12.3475 23.3552 12.3545 23.4234 12.348C23.4915 12.3416 23.5576 12.3218 23.6181 12.2898C23.6786 12.2577 23.7321 12.2141 23.7757 12.1613L24.8825 10.8159C24.9261 10.7628 24.9587 10.7017 24.9786 10.6361C24.9985 10.5704 25.0052 10.5014 24.9983 10.4331C24.9915 10.3648 24.9712 10.2986 24.9387 10.2382C24.9061 10.1777 24.8619 10.1244 24.8087 10.0811V10.0811Z" fill="#6100FF" fill-opacity="0.6"/>
</svg>
