<svg width="26" height="20" viewBox="0 0 26 20" fill="none" xmlns="http://www.w3.org/2000/svg">
<path d="M20.25 8.75C17.141 8.75 14.625 11.266 14.625 14.375C14.625 17.484 17.141 20 20.25 20C23.359 20 25.875 17.484 25.875 14.375C25.875 11.266 23.359 8.75 20.25 8.75ZM22.75 14.6207C22.75 14.8293 22.5793 15 22.3707 15H20.0047C19.7961 15 19.6254 14.8293 19.6254 14.6207V11.6297C19.6254 11.4211 19.7961 11.2504 20.0047 11.2504H20.4957C20.7043 11.2504 20.875 11.4211 20.875 11.6297V13.75H22.3707C22.5793 13.75 22.75 13.9207 22.75 14.1293V14.6207ZM20.25 7.5C20.4609 7.5 20.6687 7.51289 20.875 7.53164V5.625C20.875 4.625 20 3.75 19 3.75H15.875V1.875C15.875 0.875 15 0 14 0H7.75C6.75 0 5.875 0.875 5.875 1.875V3.75H2.75C1.75 3.75 0.875 4.625 0.875 5.625V8.75H16.3094C17.4266 7.96523 18.784 7.5 20.25 7.5ZM13.375 3.75H8.375V2.5H13.375V3.75ZM13.6414 12.5H9C8.65469 12.5 8.375 12.2203 8.375 11.875V10H0.875V15.625C0.875 16.625 1.75 17.5 2.75 17.5H14.134C13.6523 16.5609 13.375 15.5008 13.375 14.375C13.375 13.7242 13.4719 13.0969 13.6414 12.5Z" fill="#6100FF" fill-opacity="0.6"/>
</svg>
