<svg width="25" height="8" viewBox="0 0 25 8" fill="none" xmlns="http://www.w3.org/2000/svg">
<path d="M16.4062 4C16.4062 5.94336 14.834 7.51562 12.8906 7.51562C10.9473 7.51562 9.375 5.94336 9.375 4C9.375 2.05664 10.9473 0.484375 12.8906 0.484375C14.834 0.484375 16.4062 2.05664 16.4062 4ZM21.4844 0.484375C19.541 0.484375 17.9688 2.05664 17.9688 4C17.9688 5.94336 19.541 7.51562 21.4844 7.51562C23.4277 7.51562 25 5.94336 25 4C25 2.05664 23.4277 0.484375 21.4844 0.484375ZM4.29688 0.484375C2.35352 0.484375 0.78125 2.05664 0.78125 4C0.78125 5.94336 2.35352 7.51562 4.29688 7.51562C6.24023 7.51562 7.8125 5.94336 7.8125 4C7.8125 2.05664 6.24023 0.484375 4.29688 0.484375Z" fill="#6100FF" fill-opacity="0.6"/>
</svg>
