<svg width="51" height="50" viewBox="0 0 51 50" fill="none" xmlns="http://www.w3.org/2000/svg">
<path d="M35.1562 18.75C35.1562 21.2364 34.1685 23.621 32.4104 25.3791C30.6522 27.1373 28.2677 28.125 25.7812 28.125C23.2948 28.125 20.9103 27.1373 19.1521 25.3791C17.394 23.621 16.4062 21.2364 16.4062 18.75C16.4062 16.2636 17.394 13.879 19.1521 12.1209C20.9103 10.3627 23.2948 9.375 25.7812 9.375C28.2677 9.375 30.6522 10.3627 32.4104 12.1209C34.1685 13.879 35.1562 16.2636 35.1562 18.75Z" fill="#6100FF" fill-opacity="0.6"/>
<path fill-rule="evenodd" clip-rule="evenodd" d="M0.78125 25C0.78125 18.3696 3.41517 12.0107 8.10358 7.32233C12.792 2.63392 19.1508 0 25.7812 0C32.4117 0 38.7705 2.63392 43.4589 7.32233C48.1473 12.0107 50.7812 18.3696 50.7812 25C50.7812 31.6304 48.1473 37.9893 43.4589 42.6777C38.7705 47.3661 32.4117 50 25.7812 50C19.1508 50 12.792 47.3661 8.10358 42.6777C3.41517 37.9893 0.78125 31.6304 0.78125 25ZM25.7812 3.125C21.6618 3.12522 17.6261 4.28863 14.1388 6.48134C10.6514 8.67404 7.85401 11.8069 6.06864 15.5194C4.28327 19.2318 3.58246 23.3729 4.04687 27.4661C4.51128 31.5593 6.12204 35.4382 8.69375 38.6562C10.9125 35.0812 15.7969 31.25 25.7812 31.25C35.7656 31.25 40.6469 35.0781 42.8688 38.6562C45.4405 35.4382 47.0512 31.5593 47.5156 27.4661C47.98 23.3729 47.2792 19.2318 45.4939 15.5194C43.7085 11.8069 40.9111 8.67404 37.4237 6.48134C33.9364 4.28863 29.9007 3.12522 25.7812 3.125Z" fill="#6100FF" fill-opacity="0.6"/>
</svg>
